<svg xmlns="http://www.w3.org/2000/svg" width="100%" height="100%" viewBox="0 0 1200 300"><defs><linearGradient id="bgGrad" x1="0%" x2="100%" y1="0%" y2="100%"><stop offset="0%" stop-color="#0f172a"/><stop offset="50%" stop-color="#1e293b"/><stop offset="100%" stop-color="#0f172a"/></linearGradient><linearGradient id="textGrad" x1="0%" x2="100%" y1="0%" y2="0%"><stop offset="0%" stop-color="#38bdf8"/><stop offset="50%" stop-color="#34d399"/><stop offset="100%" stop-color="#a78bfa"/></linearGradient><linearGradient id="cardGrad" x1="0%" x2="0%" y1="0%" y2="100%"><stop offset="0%" stop-color="#1e293b" stop-opacity=".8"/><stop offset="100%" stop-color="#0f172a" stop-opacity=".8"/></linearGradient><filter id="glow" width="140%" height="140%" x="-20%" y="-20%"><feGaussianBlur result="blur" stdDeviation="8"/><feComposite in="SourceGraphic" in2="blur" operator="over"/></filter></defs><style>@keyframes pulse{0%{transform:scale(1);opacity:.3}}@keyframes float{0%{transform:translateY(0)}}.subtitle,.tag,.title{font-family:system-ui,-apple-system,&apos;Segoe UI&apos;,Roboto,Helvetica,Arial,sans-serif}.title{font-weight:800;font-size:46px;fill:url(#textGrad)}.subtitle{font-weight:500;font-size:20px;fill:#94a3b8}.tag{font-weight:600;font-size:13px;fill:#e2e8f0}.pulse-circle{animation:pulse 3s infinite alternate ease-in-out}.float-card{animation:float 4s infinite alternate ease-in-out}.dash-line{stroke-dasharray:8 8;animation:dash 20s linear infinite}</style><rect width="1200" height="300" fill="url(#bgGrad)" rx="16"/><rect width="1196" height="296" x="2" y="2" fill="none" stroke="#334155" stroke-width="2" rx="14"/><g opacity=".4"><circle cx="150" cy="80" r="60" fill="#0284c7" class="pulse-circle" filter="url(#glow)"/><circle cx="1050" cy="220" r="70" fill="#059669" class="pulse-circle" filter="url(#glow)" style="animation-delay:-1.5s"/></g><path fill="none" stroke="#0284c7" stroke-width="2" d="M 50 240 Q 200 180 350 250 T 650 220 T 950 260 T 1150 200" class="dash-line" opacity=".3"/><path fill="none" stroke="#10b981" stroke-width="2" d="M 50 60 Q 250 120 500 50 T 850 80 T 1150 40" class="dash-line" opacity=".25" style="animation-duration:15s"/><g class="float-card" transform="translate(60, 140)"><rect width="160" height="75" fill="url(#cardGrad)" stroke="#0284c7" stroke-width="1.5" rx="10"/><text x="15" y="30" fill="#38bdf8" class="tag">🛡️ HACCP Plans</text><text x="15" y="55" fill="#64748b" font-family="sans-serif" font-size="11">Digital Verification</text></g><g class="float-card" transform="translate(980, 70)" style="animation-delay:-2s"><rect width="160" height="75" fill="url(#cardGrad)" stroke="#10b981" stroke-width="1.5" rx="10"/><text x="15" y="30" fill="#34d399" class="tag">🌡️ Sensor IoT</text><text x="15" y="55" fill="#64748b" font-family="sans-serif" font-size="11">Cold Chain Tracking</text></g><g text-anchor="middle"><g><path fill="#10b981" d="M 0 -22 L 20 -10 V 10 Q 0 25 -20 10 V -10 Z" opacity=".2" transform="translate(600, 52)"/><path fill="none" stroke="#34d399" stroke-width="2" d="M 0 -18 L 16 -8 V 8 Q 0 20 -16 8 V -8 Z" transform="translate(600, 52)"/><path fill="none" stroke="#34d399" stroke-linecap="round" stroke-linejoin="round" stroke-width="2.5" d="M -6 0 L -1 5 L 7 -4" transform="translate(600, 52)"/></g><text x="600" y="135" class="title">Awesome Food Safety &amp; HACCP</text><text x="600" y="175" class="subtitle">Curated SaaS Platforms, Open-Source Repositories &amp; IoT Compliance Ecosystem</text><g><g transform="translate(600, 225) translate(-240, 0)"><rect width="140" height="32" x="-70" y="-16" fill="#1e293b" stroke="#38bdf8" stroke-width="1" rx="16"/><text y="5" class="tag" text-anchor="middle">📋 Digital Audits</text></g><g transform="translate(600, 225) translate(0, 0)"><rect width="150" height="32" x="-75" y="-16" fill="#1e293b" stroke="#34d399" stroke-width="1" rx="16"/><text y="5" class="tag" text-anchor="middle">⚡ Real-time Alerts</text></g><g transform="translate(600, 225) translate(240, 0)"><rect width="160" height="32" x="-80" y="-16" fill="#1e293b" stroke="#a78bfa" stroke-width="1" rx="16"/><text y="5" class="tag" text-anchor="middle">🔬 Traceability &amp; QC</text></g></g></g></svg>